<svg width="50" height="66" viewBox="0 0 50 66" fill="none" xmlns="http://www.w3.org/2000/svg">
<g filter="url(#filter0_d_913_1948)">
<path d="M10 32H14C15 32 16 31.125 16 30V26C16 25 15 24 14 24H10C8.875 24 8 25 8 26V30C8 31.125 8.875 32 10 32ZM10 26H14V30H10V26ZM8 42C8 43.125 8.875 44 10 44H14C15 44 16 43.125 16 42V38C16 37 15 36 14 36H10C8.875 36 8 37 8 38V42ZM10 38H14V42H10V38ZM26 48H10C8.875 48 8 49 8 50V54C8 55.125 8.875 56 10 56H26C27 56 28 55.125 28 54V50C28 49 27 48 26 48ZM26 54H10V50H26V54ZM38 36H34C32.875 36 32 37 32 38V42C32 43.125 32.875 44 34 44H38C39 44 40 43.125 40 42V38C40 37 39 36 38 36ZM38 42H34V38H38V42ZM36 8H12C9.75 8 8 9.875 8 12V16C8 18.25 9.75 20 12 20H36C38.125 20 40 18.25 40 16V12C40 9.875 38.125 8 36 8ZM38 16C38 17.125 37 18 36 18H12C10.875 18 10 17.125 10 16V12C10 11 10.875 10 12 10H36C37 10 38 11 38 12V16ZM38 24H34C32.875 24 32 25 32 26V30C32 31.125 32.875 32 34 32H38C39 32 40 31.125 40 30V26C40 25 39 24 38 24ZM38 30H34V26H38V30ZM40 0H8C3.5 0 0 3.625 0 8V56C0 60.5 3.5 64 8 64H40C44.375 64 48 60.5 48 56V8C48 3.625 44.375 0 40 0ZM46 56C46 59.375 43.25 62 40 62H8C4.625 62 2 59.375 2 56V8C2 4.75 4.625 2 8 2H40C43.25 2 46 4.75 46 8V56ZM26 24H22C20.875 24 20 25 20 26V30C20 31.125 20.875 32 22 32H26C27 32 28 31.125 28 30V26C28 25 27 24 26 24ZM26 30H22V26H26V30ZM26 36H22C20.875 36 20 37 20 38V42C20 43.125 20.875 44 22 44H26C27 44 28 43.125 28 42V38C28 37 27 36 26 36ZM26 42H22V38H26V42ZM38 48H34C32.875 48 32 49 32 50V54C32 55.125 32.875 56 34 56H38C39 56 40 55.125 40 54V50C40 49 39 48 38 48ZM38 54H34V50H38V54Z" fill="#080040"/>
</g>
<defs>
<filter id="filter0_d_913_1948" x="0" y="0" width="50" height="66" filterUnits="userSpaceOnUse" color-interpolation-filters="sRGB">
<feFlood flood-opacity="0" result="BackgroundImageFix"/>
<feColorMatrix in="SourceAlpha" type="matrix" values="0 0 0 0 0 0 0 0 0 0 0 0 0 0 0 0 0 0 127 0" result="hardAlpha"/>
<feOffset dx="2" dy="2"/>
<feComposite in2="hardAlpha" operator="out"/>
<feColorMatrix type="matrix" values="0 0 0 0 0.862745 0 0 0 0 0.862745 0 0 0 0 0.976471 0 0 0 1 0"/>
<feBlend mode="normal" in2="BackgroundImageFix" result="effect1_dropShadow_913_1948"/>
<feBlend mode="normal" in="SourceGraphic" in2="effect1_dropShadow_913_1948" result="shape"/>
</filter>
</defs>
</svg>
