<svg width="50" height="66" viewBox="0 0 50 66" fill="none" xmlns="http://www.w3.org/2000/svg">
<g filter="url(#filter0_d_913_1951)">
<path d="M46.75 18.875L29.125 1.25C28.375 0.5 27.375 0 26.25 0H8C3.5 0 0 3.625 0 8V56C0 60.5 3.5 64 8 64H40C44.375 64 48 60.5 48 56V21.75C48 20.625 47.5 19.625 46.75 18.875ZM28 2.875L45.125 20.125H31C29.25 20.125 28 18.75 28 17.125V2.875ZM46 56C46 59.25 43.25 62 40 62H8C4.625 62 2 59.25 2 56V8C2 4.625 4.625 2 8 2H26V16.875C26 19.625 28.125 21.875 31 21.875H46V56ZM12 33C12 33.5 12.375 34 13 34H35C35.5 34 36 33.5 36 33C36 32.375 35.5 32 35 32H13C12.375 32 12 32.5 12 33ZM35 40H13C12.375 40 12 40.375 12 41C12 41.5 12.375 42 13 42H35C35.5 42 36 41.5 36 41C36 40.375 35.5 40 35 40ZM35 48H13C12.375 48 12 48.375 12 49C12 49.5 12.375 50 13 50H35C35.5 50 36 49.5 36 49C36 48.375 35.5 48 35 48Z" fill="#080040"/>
</g>
<defs>
<filter id="filter0_d_913_1951" x="0" y="0" width="50" height="66" filterUnits="userSpaceOnUse" color-interpolation-filters="sRGB">
<feFlood flood-opacity="0" result="BackgroundImageFix"/>
<feColorMatrix in="SourceAlpha" type="matrix" values="0 0 0 0 0 0 0 0 0 0 0 0 0 0 0 0 0 0 127 0" result="hardAlpha"/>
<feOffset dx="2" dy="2"/>
<feComposite in2="hardAlpha" operator="out"/>
<feColorMatrix type="matrix" values="0 0 0 0 0.862745 0 0 0 0 0.862745 0 0 0 0 0.976471 0 0 0 1 0"/>
<feBlend mode="normal" in2="BackgroundImageFix" result="effect1_dropShadow_913_1951"/>
<feBlend mode="normal" in="SourceGraphic" in2="effect1_dropShadow_913_1951" result="shape"/>
</filter>
</defs>
</svg>
