<svg width="382" height="48" viewBox="0 0 382 48" fill="none" xmlns="http://www.w3.org/2000/svg">
<path d="M73.955 42.92C72.0183 42.92 70.14 42.6633 68.32 42.15C66.5233 41.6133 65.0767 40.925 63.98 40.085L65.905 35.815C66.955 36.585 68.2033 37.2033 69.65 37.67C71.0967 38.1367 72.5433 38.37 73.99 38.37C75.6 38.37 76.79 38.1367 77.56 37.67C78.33 37.18 78.715 36.5383 78.715 35.745C78.715 35.1617 78.4817 34.6833 78.015 34.31C77.5717 33.9133 76.9883 33.5983 76.265 33.365C75.565 33.1317 74.6083 32.875 73.395 32.595C71.5283 32.1517 70 31.7083 68.81 31.265C67.62 30.8217 66.5933 30.11 65.73 29.13C64.89 28.15 64.47 26.8433 64.47 25.21C64.47 23.7867 64.855 22.5033 65.625 21.36C66.395 20.1933 67.55 19.2717 69.09 18.595C70.6533 17.9183 72.555 17.58 74.795 17.58C76.3583 17.58 77.8867 17.7667 79.38 18.14C80.8733 18.5133 82.18 19.05 83.3 19.75L81.55 24.055C79.2867 22.7717 77.0233 22.13 74.76 22.13C73.1733 22.13 71.995 22.3867 71.225 22.9C70.4783 23.4133 70.105 24.09 70.105 24.93C70.105 25.77 70.5367 26.4 71.4 26.82C72.2867 27.2167 73.6283 27.6133 75.425 28.01C77.2917 28.4533 78.82 28.8967 80.01 29.34C81.2 29.7833 82.215 30.4833 83.055 31.44C83.9183 32.3967 84.35 33.6917 84.35 35.325C84.35 36.725 83.9533 38.0083 83.16 39.175C82.39 40.3183 81.2233 41.2283 79.66 41.905C78.0967 42.5817 76.195 42.92 73.955 42.92ZM96.7993 42.78C94.816 42.78 93.031 42.3717 91.4443 41.555C89.881 40.715 88.656 39.56 87.7693 38.09C86.8827 36.62 86.4393 34.9517 86.4393 33.085C86.4393 31.2183 86.8827 29.55 87.7693 28.08C88.656 26.61 89.881 25.4667 91.4443 24.65C93.031 23.81 94.816 23.39 96.7993 23.39C98.7827 23.39 100.556 23.81 102.119 24.65C103.683 25.4667 104.908 26.61 105.794 28.08C106.681 29.55 107.124 31.2183 107.124 33.085C107.124 34.9517 106.681 36.62 105.794 38.09C104.908 39.56 103.683 40.715 102.119 41.555C100.556 42.3717 98.7827 42.78 96.7993 42.78ZM96.7993 38.3C98.1993 38.3 99.3427 37.8333 100.229 36.9C101.139 35.9433 101.594 34.6717 101.594 33.085C101.594 31.4983 101.139 30.2383 100.229 29.305C99.3427 28.3483 98.1993 27.87 96.7993 27.87C95.3993 27.87 94.2443 28.3483 93.3343 29.305C92.4243 30.2383 91.9693 31.4983 91.9693 33.085C91.9693 34.6717 92.4243 35.9433 93.3343 36.9C94.2443 37.8333 95.3993 38.3 96.7993 38.3ZM110.774 16.53H116.234V42.5H110.774V16.53ZM128.896 23.39C131.813 23.39 134.053 24.09 135.616 25.49C137.18 26.8667 137.961 28.955 137.961 31.755V42.5H132.851V40.155C131.825 41.905 129.911 42.78 127.111 42.78C125.665 42.78 124.405 42.535 123.331 42.045C122.281 41.555 121.476 40.8783 120.916 40.015C120.356 39.1517 120.076 38.1717 120.076 37.075C120.076 35.325 120.73 33.9483 122.036 32.945C123.366 31.9417 125.408 31.44 128.161 31.44H132.501C132.501 30.25 132.14 29.34 131.416 28.71C130.693 28.0567 129.608 27.73 128.161 27.73C127.158 27.73 126.166 27.8933 125.186 28.22C124.23 28.5233 123.413 28.9433 122.736 29.48L120.776 25.665C121.803 24.9417 123.028 24.3817 124.451 23.985C125.898 23.5883 127.38 23.39 128.896 23.39ZM128.476 39.105C129.41 39.105 130.238 38.895 130.961 38.475C131.685 38.0317 132.198 37.39 132.501 36.55V34.625H128.756C126.516 34.625 125.396 35.36 125.396 36.83C125.396 37.53 125.665 38.09 126.201 38.51C126.761 38.9067 127.52 39.105 128.476 39.105ZM148.118 26.155C148.771 25.245 149.646 24.5567 150.743 24.09C151.863 23.6233 153.146 23.39 154.593 23.39V28.43C153.986 28.3833 153.578 28.36 153.368 28.36C151.804 28.36 150.579 28.8033 149.693 29.69C148.806 30.5533 148.363 31.86 148.363 33.61V42.5H142.903V23.67H148.118V26.155ZM169.284 23.39C171.618 23.39 173.496 24.09 174.919 25.49C176.366 26.89 177.089 28.9667 177.089 31.72V42.5H171.629V32.56C171.629 31.0667 171.303 29.9583 170.649 29.235C169.996 28.4883 169.051 28.115 167.814 28.115C166.438 28.115 165.341 28.5467 164.524 29.41C163.708 30.25 163.299 31.51 163.299 33.19V42.5H157.839V23.67H163.054V25.875C163.778 25.0817 164.676 24.475 165.749 24.055C166.823 23.6117 168.001 23.39 169.284 23.39ZM182.039 23.67H187.499V42.5H182.039V23.67ZM184.769 21.045C183.765 21.045 182.949 20.7533 182.319 20.17C181.689 19.5867 181.374 18.8633 181.374 18C181.374 17.1367 181.689 16.4133 182.319 15.83C182.949 15.2467 183.765 14.955 184.769 14.955C185.772 14.955 186.589 15.235 187.219 15.795C187.849 16.355 188.164 17.055 188.164 17.895C188.164 18.805 187.849 19.5633 187.219 20.17C186.589 20.7533 185.772 21.045 184.769 21.045ZM211.613 31.615L207.133 36.165V42.5H203.633V18H207.133V31.685L220.433 18H224.423L213.958 29.025L225.088 42.5H220.993L211.613 31.615ZM234.61 23.775C237.177 23.775 239.137 24.405 240.49 25.665C241.867 26.925 242.555 28.8033 242.555 31.3V42.5H239.37V40.05C238.81 40.9133 238.005 41.5783 236.955 42.045C235.928 42.4883 234.703 42.71 233.28 42.71C231.203 42.71 229.535 42.2083 228.275 41.205C227.038 40.2017 226.42 38.8833 226.42 37.25C226.42 35.6167 227.015 34.31 228.205 33.33C229.395 32.3267 231.285 31.825 233.875 31.825H239.195V31.16C239.195 29.7133 238.775 28.605 237.935 27.835C237.095 27.065 235.858 26.68 234.225 26.68C233.128 26.68 232.055 26.8667 231.005 27.24C229.955 27.59 229.068 28.0683 228.345 28.675L226.945 26.155C227.902 25.385 229.045 24.8017 230.375 24.405C231.705 23.985 233.117 23.775 234.61 23.775ZM233.84 40.12C235.123 40.12 236.232 39.84 237.165 39.28C238.098 38.6967 238.775 37.88 239.195 36.83V34.24H234.015C231.168 34.24 229.745 35.1967 229.745 37.11C229.745 38.0433 230.107 38.7783 230.83 39.315C231.553 39.8517 232.557 40.12 233.84 40.12ZM248.773 16.53H252.133V42.5H248.773V16.53ZM265.758 33.855L261.908 37.425V42.5H258.548V16.53H261.908V33.19L272.023 23.95H276.083L268.278 31.615L276.853 42.5H272.723L265.758 33.855ZM297.064 23.95V42.5H293.879V39.7C293.202 40.6567 292.304 41.4033 291.184 41.94C290.087 42.4533 288.886 42.71 287.579 42.71C285.106 42.71 283.157 42.0333 281.734 40.68C280.311 39.3033 279.599 37.285 279.599 34.625V23.95H282.959V34.24C282.959 36.0367 283.391 37.4017 284.254 38.335C285.117 39.245 286.354 39.7 287.964 39.7C289.737 39.7 291.137 39.1633 292.164 38.09C293.191 37.0167 293.704 35.5 293.704 33.54V23.95H297.064ZM303.46 16.53H306.82V42.5H303.46V16.53ZM319.991 23.775C322.557 23.775 324.517 24.405 325.871 25.665C327.247 26.925 327.936 28.8033 327.936 31.3V42.5H324.751V40.05C324.191 40.9133 323.386 41.5783 322.336 42.045C321.309 42.4883 320.084 42.71 318.661 42.71C316.584 42.71 314.916 42.2083 313.656 41.205C312.419 40.2017 311.801 38.8833 311.801 37.25C311.801 35.6167 312.396 34.31 313.586 33.33C314.776 32.3267 316.666 31.825 319.256 31.825H324.576V31.16C324.576 29.7133 324.156 28.605 323.316 27.835C322.476 27.065 321.239 26.68 319.606 26.68C318.509 26.68 317.436 26.8667 316.386 27.24C315.336 27.59 314.449 28.0683 313.726 28.675L312.326 26.155C313.282 25.385 314.426 24.8017 315.756 24.405C317.086 23.985 318.497 23.775 319.991 23.775ZM319.221 40.12C320.504 40.12 321.612 39.84 322.546 39.28C323.479 38.6967 324.156 37.88 324.576 36.83V34.24H319.396C316.549 34.24 315.126 35.1967 315.126 37.11C315.126 38.0433 315.487 38.7783 316.211 39.315C316.934 39.8517 317.937 40.12 319.221 40.12ZM344.584 41.415C344.094 41.835 343.487 42.1617 342.764 42.395C342.04 42.605 341.294 42.71 340.524 42.71C338.657 42.71 337.21 42.2083 336.184 41.205C335.157 40.2017 334.644 38.7667 334.644 36.9V26.715H331.494V23.95H334.644V19.89H338.004V23.95H343.324V26.715H338.004V36.76C338.004 37.7633 338.249 38.5333 338.739 39.07C339.252 39.6067 339.975 39.875 340.909 39.875C341.935 39.875 342.81 39.5833 343.534 39L344.584 41.415ZM355.976 42.71C354.132 42.71 352.476 42.3017 351.006 41.485C349.536 40.6683 348.381 39.5483 347.541 38.125C346.724 36.6783 346.316 35.045 346.316 33.225C346.316 31.405 346.724 29.7833 347.541 28.36C348.381 26.9133 349.536 25.7933 351.006 25C352.476 24.1833 354.132 23.775 355.976 23.775C357.819 23.775 359.464 24.1833 360.911 25C362.381 25.7933 363.524 26.9133 364.341 28.36C365.181 29.7833 365.601 31.405 365.601 33.225C365.601 35.045 365.181 36.6783 364.341 38.125C363.524 39.5483 362.381 40.6683 360.911 41.485C359.464 42.3017 357.819 42.71 355.976 42.71ZM355.976 39.77C357.166 39.77 358.227 39.5017 359.161 38.965C360.117 38.405 360.864 37.635 361.401 36.655C361.937 35.6517 362.206 34.5083 362.206 33.225C362.206 31.9417 361.937 30.81 361.401 29.83C360.864 28.8267 360.117 28.0567 359.161 27.52C358.227 26.9833 357.166 26.715 355.976 26.715C354.786 26.715 353.712 26.9833 352.756 27.52C351.822 28.0567 351.076 28.8267 350.516 29.83C349.979 30.81 349.711 31.9417 349.711 33.225C349.711 34.5083 349.979 35.6517 350.516 36.655C351.076 37.635 351.822 38.405 352.756 38.965C353.712 39.5017 354.786 39.77 355.976 39.77ZM373.468 27.065C374.051 25.9917 374.914 25.175 376.057 24.615C377.201 24.055 378.589 23.775 380.223 23.775V27.03C380.036 27.0067 379.779 26.995 379.453 26.995C377.633 26.995 376.198 27.5433 375.148 28.64C374.121 29.7133 373.608 31.2533 373.608 33.26V42.5H370.248V23.95H373.468V27.065Z" fill="#080040"/>
<path fill-rule="evenodd" clip-rule="evenodd" d="M49.2556 22.9143C50.4725 28.6566 51.6894 34.3989 52.8385 40.1548C53.0685 41.307 53.0041 42.5239 52.9403 43.7278L52.9403 43.7286C52.9245 44.0262 52.9088 44.3232 52.8976 44.6181C52.8436 44.9761 52.6137 45.1117 52.3187 45.2857L52.288 45.3038C52.0811 45.4261 51.6035 45.444 51.3303 45.4441C45.342 45.4455 39.3537 45.4455 33.3654 45.4454L30.2901 45.4454H29.4461V45.5H27.4398L27.4398 45.4458C27.2819 45.4458 27.1325 45.4478 26.9888 45.4498H26.9886H26.9885C26.6783 45.454 26.3952 45.4579 26.1135 45.4401C25.9521 45.4299 25.8329 45.449 25.7478 45.5H23.5546V45.4454H22.7261L17.346 45.4454C12.1049 45.4455 6.86378 45.4455 1.62266 45.4451C0.269633 45.445 0.142971 45.2245 0.0409418 43.8687C-0.158819 41.2143 0.407761 38.675 0.974306 36.1357C1.10184 35.5642 1.22937 34.9926 1.34815 34.4197C2.33742 29.6487 3.34643 24.8817 4.35544 20.1147L4.35544 20.1147L4.35627 20.1108C4.59062 19.0036 4.82498 17.8964 5.05909 16.7891C5.29581 15.6695 5.52213 15.5007 6.69607 15.5005C12.0364 15.4999 17.3767 15.5 22.7171 15.5L27.8627 15.5001L32.6048 15.5001C37.1529 15.5 41.701 15.5 46.2491 15.5003C47.5308 15.5004 47.7228 15.6584 47.9855 16.9068C48.4069 18.9097 48.8312 20.912 49.2556 22.9143ZM50.4561 38.1456L50.456 38.1455L50.456 38.1453C50.1713 36.8144 49.8916 35.5065 49.6384 34.1934C49.5438 33.7029 49.3558 33.557 48.859 33.5593C45.754 33.5739 42.649 33.573 39.5439 33.5721C38.4163 33.5718 37.2887 33.5714 36.1611 33.5719C36.0247 33.5719 35.8882 33.5796 35.7339 33.5883L35.7339 33.5883L35.7337 33.5883L35.7336 33.5883C35.6558 33.5926 35.5734 33.5973 35.4843 33.6013L35.9135 39.6723H50.7811C50.6728 39.1591 50.5641 38.6507 50.4561 38.1456ZM48.6355 29.4728C48.4027 28.388 48.1699 27.3032 47.9648 26.2132C47.8632 25.6733 47.6428 25.5117 47.099 25.515C44.4047 25.5311 41.7102 25.5301 39.0158 25.5291C37.8999 25.5287 36.784 25.5282 35.6682 25.529C35.5205 25.5292 35.3728 25.5417 35.2036 25.556C35.1177 25.5633 35.0262 25.571 34.9264 25.5778L35.3424 31.5981H49.0294C49.0219 31.5285 49.0164 31.4619 49.011 31.3974V31.3973C49 31.2648 48.9898 31.1416 48.9647 31.0215C48.857 30.5049 48.7462 29.9888 48.6355 29.4728ZM38.0152 17.4798C37.0083 17.4794 36.0014 17.4791 34.9945 17.4797C34.8591 17.4798 34.7238 17.4897 34.5768 17.5004C34.5047 17.5057 34.4298 17.5112 34.3508 17.5158L34.784 23.5339H47.3826C47.2733 23.0197 47.1635 22.5117 47.0545 22.0078L47.0545 22.0075L47.0544 22.0074C46.7697 20.6907 46.4912 19.4026 46.2447 18.1085C46.1497 17.6098 45.9653 17.465 45.4705 17.4678C42.9854 17.4817 40.5003 17.4807 38.0152 17.4798H38.0152ZM20.8407 17.5049L20.8407 17.5049L20.8407 17.5049C20.769 17.5111 20.6948 17.5176 20.6169 17.5231L20.1986 23.5346H32.8114C32.8067 23.4363 32.8028 23.3454 32.7992 23.2594V23.2594V23.2593C32.7919 23.0877 32.7854 22.936 32.7745 22.7845C32.7417 22.3274 32.7062 21.8703 32.6708 21.4133L32.6708 21.4132C32.586 20.3189 32.5012 19.2246 32.4514 18.1288C32.4274 17.6003 32.2608 17.4646 31.7498 17.4676C29.2893 17.4818 26.8288 17.4809 24.3683 17.48H24.3683C23.3322 17.4796 22.2961 17.4792 21.2601 17.48C21.1238 17.4801 20.9875 17.492 20.8407 17.5049ZM32.959 25.5854H20.0507L19.6383 31.5801H33.3779L32.959 25.5854ZM19.3956 34.9842L19.3955 34.9844L19.3955 34.9845C19.3864 35.0669 19.3772 35.1494 19.3714 35.2321C19.293 36.3511 19.2155 37.4702 19.1368 38.6072L19.1361 38.6169L19.0641 39.658H33.9467C33.9423 39.5709 33.9386 39.488 33.935 39.408C33.9276 39.2426 33.9208 39.0894 33.9098 38.9366C33.8771 38.4802 33.8415 38.024 33.8059 37.5677L33.8057 37.566L33.8057 37.5659C33.7204 36.4733 33.635 35.3806 33.5897 34.2864C33.5656 33.7055 33.3848 33.555 32.8171 33.5583C29.7368 33.5759 26.6564 33.5739 23.576 33.5719C22.596 33.5713 21.616 33.5707 20.636 33.5707C19.8781 33.5707 19.4728 33.9573 19.4201 34.7304C19.4143 34.8152 19.4049 34.8997 19.3956 34.9842ZM7.47846 17.4923C7.26418 17.4943 6.89629 17.6592 6.86198 17.8085C6.51887 19.302 6.20631 20.8025 5.88827 22.3294C5.80645 22.7222 5.72426 23.1168 5.64109 23.5134H18.2366L18.6605 17.478H14.9251C14.4056 17.478 13.8861 17.4777 13.3665 17.4774C11.4038 17.4761 9.44103 17.4748 7.47846 17.4923ZM6.4959 25.5269C5.22202 25.5269 5.21503 25.5269 4.95325 26.7543C4.71555 27.8688 4.4837 28.9846 4.24882 30.1149L4.2488 30.115L4.24867 30.1156C4.14694 30.6052 4.04465 31.0975 3.94106 31.5936H17.6724L18.0846 25.527H17.1723L6.50028 25.5269H6.4959ZM5.1246 33.5707C3.52063 33.5706 3.51434 33.5706 3.17716 35.1534C2.95736 36.1852 2.74453 37.2184 2.5277 38.2711L2.52768 38.2712C2.43082 38.7414 2.33315 39.2156 2.23371 39.6952L2.50472 39.6951L2.99064 39.6952C3.26636 39.6954 3.80208 39.6948 4.47404 39.6941C6.46092 39.6918 9.63891 39.6882 10.8083 39.7005C10.853 39.6981 10.8985 39.6965 10.9456 39.6964C12.2349 39.6938 13.5243 39.6943 14.8136 39.6948C15.3356 39.695 15.8576 39.6952 16.3796 39.6952H17.1014L17.5288 33.5707H5.12849H5.1246ZM2.03505 43.4438H50.9633V41.6277H50.0965H14.9014C14.524 41.6277 14.1466 41.6279 13.7692 41.6282H13.7678C12.8422 41.6288 11.9165 41.6294 10.9909 41.6263C10.4322 41.6362 7.17938 41.6321 6.1117 41.6308H6.11078L5.78096 41.6304C4.86518 41.6307 3.94941 41.6307 3.01968 41.6307L2.03505 41.6306V43.4438Z" fill="#080040"/>
<g clip-path="url(#clip0_1580_469)">
<path d="M26.9627 19.4997C30.2018 19.5309 32.9327 16.8426 32.9989 13.5578C33.0639 10.3266 30.257 7.49427 26.9954 7.50001C23.753 7.50573 21.0191 10.2353 21.0001 13.4857C20.9812 16.7265 23.6995 19.4683 26.9627 19.4997V19.4997ZM27.0025 9.97172C28.9751 9.97364 30.5661 11.5713 30.544 13.528C30.5222 15.4553 28.9557 17.0333 27.0332 17.0646C25.1129 17.0958 23.4614 15.4642 23.4447 13.5193C23.4281 11.5688 25.0317 9.9698 27.0025 9.97172Z" fill="#080040"/>
<rect x="25" y="0.5" width="3" height="4" rx="1.5" fill="#080040"/>
<rect x="38" y="11.5" width="3" height="4" rx="1.5" transform="rotate(90 38 11.5)" fill="#080040"/>
<rect width="3" height="4" rx="1.5" transform="matrix(0.707106 0.707107 -0.707106 0.707108 34 3.5)" fill="#080040"/>
<rect x="18" y="11.5" width="3" height="4" rx="1.5" transform="rotate(90 18 11.5)" fill="#080040"/>
<rect width="3" height="4" rx="1.5" transform="matrix(-0.707106 0.707108 -0.707106 -0.707108 21 5.5)" fill="#080040"/>
</g>
<defs>
<clipPath id="clip0_1580_469">
<rect width="24" height="13" fill="white" transform="translate(14 0.5)"/>
</clipPath>
</defs>
</svg>
