<svg width="84" height="66" viewBox="0 0 84 66" fill="none" xmlns="http://www.w3.org/2000/svg">
<g filter="url(#filter0_d_913_2216)">
<path d="M80.75 41.875L71.75 3.875C71.125 1.625 69.125 0 66.875 0H15C12.75 0 10.75 1.625 10.125 3.875L1.125 41.75C0.75 43.25 1 44.875 2 46C3 47.375 4.375 48 6 48H40V56H32C28.125 56 25 59.25 25 63C25 63.625 25.375 64 26 64C26.5 64 27 63.625 27 63C27 60.25 29.25 58 32 58H50C52.75 58 55 60.25 55 63C55 63.625 55.375 64 56 64C56.5 64 57 63.625 57 63C57 59.25 53.875 56 50 56H42V48H75.875C77.5 48 78.875 47.375 79.875 46.125C80.875 45 81.125 43.375 80.75 41.875ZM78.25 44.875C77.75 45.625 76.875 46 75.875 46H6C5 46 4.125 45.625 3.625 44.875C3 44.25 2.75 43.25 3 42.375L12.125 4.375C12.5 3 13.625 2 15 2H66.875C68.25 2 69.375 3 69.75 4.375L78.875 42.375C79.125 43.25 78.875 44.25 78.25 44.875ZM63.625 8H18.25C17.75 8 17.375 8.375 17.25 8.875L10 38.875C10 39.125 10 39.375 10.25 39.625C10.375 39.875 10.75 40 11 40H70.875C71.125 40 71.5 39.875 71.625 39.625C71.875 39.5 71.875 39.125 71.875 38.875L64.625 8.875C64.5 8.375 64.125 8 63.625 8ZM42 10H53C53 10.125 53 10.125 53 10.25L54.875 23H42V10ZM19 10H27L25.125 23H15.875L19 10ZM23 38H12.25L15.375 25H24.75L23 37.875C23 38 23 38 23 38ZM40 38H25L26.875 25H40V38ZM40 23H27.125L29 10.25C29 10.125 28.875 10.125 28.875 10H40V23ZM42 38V25H55.125L57 38H42ZM69.625 38H59C59 38 59 38 59 37.875L57.125 25H66.5L69.625 38ZM56.875 23L55 10H62.875L66 23H56.875Z" fill="#080040"/>
</g>
<defs>
<filter id="filter0_d_913_2216" x="0.75" y="0" width="82.375" height="66" filterUnits="userSpaceOnUse" color-interpolation-filters="sRGB">
<feFlood flood-opacity="0" result="BackgroundImageFix"/>
<feColorMatrix in="SourceAlpha" type="matrix" values="0 0 0 0 0 0 0 0 0 0 0 0 0 0 0 0 0 0 127 0" result="hardAlpha"/>
<feOffset dx="2" dy="2"/>
<feComposite in2="hardAlpha" operator="out"/>
<feColorMatrix type="matrix" values="0 0 0 0 0.862745 0 0 0 0 0.862745 0 0 0 0 0.976471 0 0 0 1 0"/>
<feBlend mode="normal" in2="BackgroundImageFix" result="effect1_dropShadow_913_2216"/>
<feBlend mode="normal" in="SourceGraphic" in2="effect1_dropShadow_913_2216" result="shape"/>
</filter>
</defs>
</svg>
